<svg xmlns="http://www.w3.org/2000/svg" xmlns:xlink="http://www.w3.org/1999/xlink" width="71.87" height="71.87" viewBox="0 0 71.87 71.87"><defs><style>.a{fill:none;}.b{clip-path:url(#a);}.c{fill:#031826;stroke:rgba(0,0,0,0);}</style><clipPath id="a"><rect class="a" width="71.87" height="71.87"/></clipPath></defs><g class="b"><path class="c" d="M19480.807-13425.259a35.721,35.721,0,0,1-13.988-2.824,35.8,35.8,0,0,1-11.42-7.7,35.826,35.826,0,0,1-7.7-11.424,35.713,35.713,0,0,1-2.824-13.987,35.72,35.72,0,0,1,2.824-13.987,35.8,35.8,0,0,1,7.7-11.422,35.775,35.775,0,0,1,11.42-7.7,35.738,35.738,0,0,1,13.988-2.823,35.721,35.721,0,0,1,13.986,2.823,35.824,35.824,0,0,1,11.424,7.7,35.808,35.808,0,0,1,7.7,11.422,35.72,35.72,0,0,1,2.824,13.987,35.713,35.713,0,0,1-2.824,13.987,35.838,35.838,0,0,1-7.7,11.424,35.811,35.811,0,0,1-11.424,7.7A35.7,35.7,0,0,1,19480.807-13425.259Zm-23.811-49.353h0v28.434h12.8a19.991,19.991,0,0,0,4.018-.387,7.8,7.8,0,0,0,3.207-1.426,7.919,7.919,0,0,0,2.014-2.233,8.332,8.332,0,0,0,1.264-4.536,7.55,7.55,0,0,0-1.111-4.168,6.387,6.387,0,0,0-3.277-2.513,6.7,6.7,0,0,0,2.166-1.616,6.383,6.383,0,0,0,1.313-4.187,7.288,7.288,0,0,0-1.3-4.34c-1.439-1.955-3.916-2.974-7.361-3.027Zm35.584,6.637a9.87,9.87,0,0,0-7.283,2.826c-1.859,1.868-2.8,4.6-2.8,8.121a13.718,13.718,0,0,0,.775,4.862,7.667,7.667,0,0,0,2.33,3.293,11.132,11.132,0,0,0,7.17,2.508,9.936,9.936,0,0,0,7.66-2.973,6.683,6.683,0,0,0,1.975-3.684h-5.437a4.417,4.417,0,0,1-1.092,1.4,4.512,4.512,0,0,1-2.953.931,5.391,5.391,0,0,1-2.939-.764,4.877,4.877,0,0,1-2.125-4.3h14.826a26.8,26.8,0,0,0-.172-4.046,10.25,10.25,0,0,0-1.625-4.212,8.3,8.3,0,0,0-3.518-3.013A11.667,11.667,0,0,0,19492.58-13467.975Zm-5.77-5.456h0v2.841h11.451v-2.841Zm-17.246,22.311h-6.01v-7.577h6.1a7.148,7.148,0,0,1,2.84.484,3.059,3.059,0,0,1,1.813,3.047,3.608,3.608,0,0,1-1.871,3.551A6.657,6.657,0,0,1,19469.564-13451.12Zm27.6-8.141h-9.174a5.513,5.513,0,0,1,1.42-3.154,4.232,4.232,0,0,1,3.174-1.171,4.694,4.694,0,0,1,3.16,1.1,4.469,4.469,0,0,1,1.42,3.222Zm-27.59-4.144h-6.016v-6.27h5.289a10.679,10.679,0,0,1,3.355.445,2.551,2.551,0,0,1,1.529,2.621,2.691,2.691,0,0,1-1.152,2.5A5.73,5.73,0,0,1,19469.57-13463.4Z" transform="translate(-19444.871 13497.129)"/></g></svg>