<svg xmlns="http://www.w3.org/2000/svg" xmlns:xlink="http://www.w3.org/1999/xlink" width="71.871" height="71.87" viewBox="0 0 71.871 71.87"><defs><style>.a{fill:none;}.b{clip-path:url(#a);}.c{fill:#031826;stroke:rgba(0,0,0,0);}</style><clipPath id="a"><rect class="a" width="71.87" height="71.87"/></clipPath></defs><g class="b"><path class="c" d="M19570.873-13425.258a35.707,35.707,0,0,1-13.988-2.824,35.8,35.8,0,0,1-11.422-7.7,35.826,35.826,0,0,1-7.7-11.424,35.712,35.712,0,0,1-2.824-13.986,35.712,35.712,0,0,1,2.824-13.986,35.826,35.826,0,0,1,7.7-11.424,35.8,35.8,0,0,1,11.422-7.7,35.707,35.707,0,0,1,13.988-2.824,35.7,35.7,0,0,1,13.986,2.824,35.811,35.811,0,0,1,11.424,7.7,35.838,35.838,0,0,1,7.7,11.424,35.712,35.712,0,0,1,2.824,13.986,35.712,35.712,0,0,1-2.824,13.986,35.838,35.838,0,0,1-7.7,11.424,35.811,35.811,0,0,1-11.424,7.7A35.7,35.7,0,0,1,19570.873-13425.258Zm-.959-58.015a22.7,22.7,0,0,0-8.895,1.8,22.8,22.8,0,0,0-7.264,4.9,22.807,22.807,0,0,0-4.9,7.263,22.723,22.723,0,0,0-1.795,8.894,22.723,22.723,0,0,0,1.795,8.894,22.807,22.807,0,0,0,4.9,7.263,22.8,22.8,0,0,0,7.264,4.9,22.7,22.7,0,0,0,8.895,1.8,22.877,22.877,0,0,0,22.852-22.852A22.877,22.877,0,0,0,19569.914-13483.272Zm0,42.382a19.451,19.451,0,0,1-6.441-1.09,19.336,19.336,0,0,1-5.529-3.024,20.605,20.605,0,0,1,3.664-4.925,27.937,27.937,0,0,1,4.668-3.843,31.719,31.719,0,0,1,6.984-3.426c.023-.011.041-.018.061-.024a.525.525,0,0,0,.063-.024,80.157,80.157,0,0,1,4.168,14.8A19.207,19.207,0,0,1,19569.914-13440.891Zm10.881-3.346,0,0a82.906,82.906,0,0,0-3.787-13.9,26.037,26.037,0,0,1,4.047-.309,27.925,27.925,0,0,1,8.1,1.155,19.4,19.4,0,0,1-8.354,13.059Zm-25.406-3.12h0a19.494,19.494,0,0,1-5-13.039v-.595c.053,0,.277.008.7.008a71.965,71.965,0,0,0,19.348-2.783c.5.955,1,2.01,1.584,3.321-.09.027-.186.055-.279.081l-.127.036-.133.038-.229.066a26.444,26.444,0,0,0-6.662,3.275,31.58,31.58,0,0,0-4.875,4.1,31.557,31.557,0,0,0-4.326,5.5Zm34.031-13.236h0l-.072-.015a49.036,49.036,0,0,0-9.018-.872,36.137,36.137,0,0,0-4.488.267c-.086-.186-.166-.384-.234-.56-.051-.125-.115-.291-.189-.459-.379-.894-.812-1.844-1.289-2.824a26.45,26.45,0,0,0,10.885-7.682,19.4,19.4,0,0,1,3.205,5.6,19.391,19.391,0,0,1,1.2,6.545Zm-38.482-3.818h-.135a19.517,19.517,0,0,1,3.834-8.129,19.746,19.746,0,0,1,6.977-5.526,123.491,123.491,0,0,1,7.238,11.277A73.93,73.93,0,0,1,19550.938-13464.411Zm21.678-3.543h0a104.865,104.865,0,0,0-7.277-11.413l-.01-.012a19.744,19.744,0,0,1,4.586-.521,19.542,19.542,0,0,1,12.941,4.905c-.316.447-3.291,4.437-10.24,7.042Z" transform="translate(-19534.938 13497.129)"/></g></svg>