<svg xmlns="http://www.w3.org/2000/svg" xmlns:xlink="http://www.w3.org/1999/xlink" width="72.626" height="72.618" viewBox="0 0 72.626 72.618"><defs><style>.a{fill:none;}.b{clip-path:url(#a);}.c{fill:#031826;stroke:rgba(0,0,0,0);}</style><clipPath id="a"><rect class="a" width="72.626" height="72.618"/></clipPath></defs><g class="b"><path class="c" d="M91.6,153.947a36.309,36.309,0,1,0,36.289,36.341A36.357,36.357,0,0,0,91.6,153.947Zm8.821,36.135H94.641v20.589H86.086v-20.52H82.029v-7.308H86.06c0-.908-.034-1.756.009-2.6a28.975,28.975,0,0,1,.347-4.7,7.4,7.4,0,0,1,7.026-6.04c.548-.047,1.105-.038,1.654-.038,1.953,0,3.907,0,5.916,0v7.068c-1.375,0-2.725,0-4.07,0-1.765,0-2.326.561-2.326,2.343,0,1.272,0,2.549,0,3.933h6.546C100.913,185.28,100.673,187.636,100.424,190.082Z" transform="translate(-55.267 -153.947)"/></g></svg>