<svg xmlns="http://www.w3.org/2000/svg" xmlns:xlink="http://www.w3.org/1999/xlink" width="71.87" height="71.87" viewBox="0 0 71.87 71.87"><defs><style>.a{fill:none;}.b{clip-path:url(#a);}.c{fill:#031826;stroke:rgba(0,0,0,0);}</style><clipPath id="a"><rect class="a" width="71.87" height="71.87"/></clipPath></defs><g class="b"><path class="c" d="M19660.938-13425.261a35.738,35.738,0,0,1-13.988-2.823,35.775,35.775,0,0,1-11.42-7.7,35.786,35.786,0,0,1-7.7-11.422,35.713,35.713,0,0,1-2.824-13.987,35.713,35.713,0,0,1,2.824-13.987,35.783,35.783,0,0,1,7.7-11.424,35.786,35.786,0,0,1,11.42-7.7,35.721,35.721,0,0,1,13.988-2.824,35.721,35.721,0,0,1,13.988,2.824,35.783,35.783,0,0,1,11.422,7.7,35.811,35.811,0,0,1,7.7,11.424,35.713,35.713,0,0,1,2.824,13.987,35.713,35.713,0,0,1-2.824,13.987,35.813,35.813,0,0,1-7.7,11.422,35.783,35.783,0,0,1-11.422,7.7A35.724,35.724,0,0,1,19660.938-13425.261Zm5.111-58.014c-5.207,0-9.91.013-14.73.168a12.338,12.338,0,0,0-9.477,4.33,12.185,12.185,0,0,0-2.883,7.895c-.1,6.43-.164,13.329.01,20.213a13.133,13.133,0,0,0,1.615,6.234,11.776,11.776,0,0,0,4.713,4.492,15.245,15.245,0,0,0,6.807,1.622c.578.027,1.166.064,1.732.1l.121.008.275.018.625.038h12.793c.436-.03.883-.058,1.314-.085l.342-.021h.014c.945-.059,1.922-.118,2.883-.2a12.431,12.431,0,0,0,7.869-3.515,12.465,12.465,0,0,0,3.516-7.885c.094-1.057.16-2.134.227-3.175l.014-.245c.021-.37.045-.748.07-1.123v-12.788c-.029-.431-.061-.894-.1-1.5l0-.031c-.062-.969-.129-1.971-.209-2.95a12.425,12.425,0,0,0-3.383-7.725,12.279,12.279,0,0,0-7.631-3.576A60.594,60.594,0,0,0,19666.049-13483.274Zm-5.687,40.824c-3.34,0-6.357-.031-9.227-.1a8.229,8.229,0,0,1-5.658-2.185,8.16,8.16,0,0,1-2.34-5.566c-.236-4.522-.25-9.137-.264-13.6l0-.142v-.643c0-.215,0-.429,0-.644a44.953,44.953,0,0,1,.406-6.816,7.854,7.854,0,0,1,2.41-4.766,8.3,8.3,0,0,1,4.965-2.021c2.105-.172,4.3-.262,6.535-.267q.709,0,1.418,0c3.326,0,6.938.038,11.365.12a15.79,15.79,0,0,1,3.342.41,7.438,7.438,0,0,1,6.055,6.64c.219,1.725.27,3.5.318,5.216l0,.05v.02c.01.361.02.725.031,1.086.033,1.085.025,2.191.018,3.262v.121c0,.439-.008.987-.008,1.507h.084c-.014.558-.027,1.121-.039,1.679-.008.346-.016.689-.023,1.028-.053,2.41-.107,4.9-.215,7.362a8.79,8.79,0,0,1-1.654,4.987,7.789,7.789,0,0,1-6.383,3.164C19667.207-13442.48,19663.668-13442.45,19660.361-13442.45Zm.947-29.885a11.526,11.526,0,0,0-8.211,3.38,11.532,11.532,0,0,0-3.377,8.212,11.546,11.546,0,0,0,3.383,8.191,11.468,11.468,0,0,0,8.17,3.4h.027a11.531,11.531,0,0,0,8.209-3.407,11.511,11.511,0,0,0,3.391-8.2,11.508,11.508,0,0,0-3.389-8.179,11.523,11.523,0,0,0-8.184-3.394Zm12.027-3.159a2.731,2.731,0,0,0-1.93.774,2.718,2.718,0,0,0-.8,1.915,2.71,2.71,0,0,0,.779,1.932,2.7,2.7,0,0,0,1.918.807h.018a2.731,2.731,0,0,0,1.93-.784,2.7,2.7,0,0,0,.807-1.91,2.7,2.7,0,0,0-.777-1.93,2.7,2.7,0,0,0-1.926-.8Zm-12.211,22.233a7.186,7.186,0,0,1-4.969-2.064,7.54,7.54,0,0,1-2.342-4.979,7.43,7.43,0,0,1,1.889-5.419,7.47,7.47,0,0,1,5.166-2.52c.156-.009.313-.014.459-.014a7.3,7.3,0,0,1,5.107,2.056,7.9,7.9,0,0,1,2.342,5.185,6.963,6.963,0,0,1-1.762,5.1,7.975,7.975,0,0,1-5.471,2.646C19661.393-13453.266,19661.254-13453.261,19661.125-13453.261Z" transform="translate(-19625.004 13497.129)"/></g></svg>