<svg xmlns="http://www.w3.org/2000/svg" width="1004" height="412.085" viewBox="0 0 1004 412.085"><defs><style>.a{mix-blend-mode:overlay;isolation:isolate;}.b{fill:none;stroke:#6feedd;stroke-miterlimit:10;stroke-width:4px;}</style></defs><g transform="translate(2 2)"><g class="a" transform="translate(0.607 -167.428)"><path class="b" d="M321.353,357.507l-46.325-43.756H144.563V283.4h176.79V167.428H45.709L-.607,211.463V385.431l46.316,44.035H176.462v30.6H-.607V575.51H275.027l46.325-44.035Z" transform="translate(0)"/><path class="b" d="M443.98,167.43l46.307,44.035V575.5H345.415V429.459h-32.2V575.5H168.328V211.465l46.325-44.035ZM345.415,283.407h-32.2v72.76l32.2-30.34Z" transform="translate(170.101 0.002)"/><path class="b" d="M659.2,167.429V575.512H514.321V520.747l-32.2-88.873V575.512H337.252V167.429H482.124v54.764l32.2,88.873V167.429Z" transform="translate(340.19 0.001)"/></g><g class="a" transform="translate(0.607 -167.428)"><path class="b" d="M321.353,357.507l-46.325-43.756H144.563V283.4h176.79V167.428H45.709L-.607,211.463V385.431l46.316,44.035H176.462v30.6H-.607V575.51H275.027l46.325-44.035Z" transform="translate(0)"/><path class="b" d="M443.98,167.43l46.307,44.035V575.5H345.415V429.459h-32.2V575.5H168.328V211.465l46.325-44.035ZM345.415,283.407h-32.2v72.76l32.2-30.34Z" transform="translate(170.101 0.002)"/><path class="b" d="M659.2,167.429V575.512H514.321V520.747l-32.2-88.873V575.512H337.252V167.429H482.124v54.764l32.2,88.873V167.429Z" transform="translate(340.19 0.001)"/></g></g></svg>