<svg xmlns="http://www.w3.org/2000/svg" width="27.638" height="151.65" viewBox="0 0 27.638 151.65"><g transform="translate(-1016.082 -271.274)"><path d="M1040.738,401.415l2.982,2.982v17.747H1035.9v-11.4h-2.073v8.418l-2.982,2.983h-11.782l-2.982-2.983V401.415h7.855V412.8h2.054v-8.4l2.964-2.982Z" transform="translate(0 0.78)"/><path d="M1016.082,382.7l2.982-2.982h24.656v9.328h-9.892v2.072h9.892v9.328h-24.656l-2.982-2.982Zm7.855,6.346v2.072h4.927l-2.054-2.072Z" transform="translate(0 0.65)"/><path d="M1016.082,358.022h27.638v9.328h-3.709l-6.019,2.072h9.728v9.328h-27.638v-9.328h3.709l6.019-2.072h-9.728Z" transform="translate(0 0.52)"/><path d="M1016.082,336.337h7.855v5.692h19.783v9.346h-19.783v5.691h-7.855Z" transform="translate(0 0.39)"/><path d="M1016.082,317.618l2.964-2.965h21.692l2.982,2.983V332.4l-2.982,2.982h-21.692l-2.964-2.964Zm7.837,6.363v2.055H1035.9l-2.055-2.055Z" transform="translate(0 0.26)"/><path d="M1026.919,292.958l2.982,2.982,2.964-2.982h10.856v9.328H1035.9l2.054,2.055h5.764v9.346h-27.638V295.922l2.964-2.964Zm-3,9.328v2.055h4.945l-2.054-2.055Z" transform="translate(0 0.13)"/><path d="M1016.082,274.238l2.964-2.964h21.692l2.982,2.982v14.765L1040.738,292h-21.692l-2.964-2.964Zm7.837,6.364v2.055H1035.9l-2.055-2.055Z" transform="translate(0)"/></g></svg>