<svg xmlns="http://www.w3.org/2000/svg" width="1384.001" height="424.702" viewBox="0 0 1384.001 424.702"><defs><style>.a{mix-blend-mode:overlay;isolation:isolate;}.b{fill:none;stroke:#6feedd;stroke-miterlimit:10;stroke-width:4px;}</style></defs><g transform="translate(2 2)"><g class="a" transform="translate(-82.158 -982.66)"><path class="b" d="M414.074,982.661v119.561H322.945v301.14H173.287v-301.14H82.159V982.661Z" transform="translate(0 0.001)"/><path class="b" d="M535.444,982.661l47.46,45.118v330.185l-47.747,45.4H298.739l-47.75-45.4V1027.779l47.46-45.118Zm-101.9,119.292h-32.9v182.4l32.9-31.279Z" transform="translate(180.473 0.001)"/><path class="b" d="M751.82,1147.619l-47.75,45.4,47.75,45.108v165.237H602.458V1284.349l-32.9,31.268v87.745H419.9v-420.7H704.358l47.462,45.118Zm-149.362-45.666h-32.9v75.29l32.9-31.286Z" transform="translate(361.037 0.001)"/><path class="b" d="M873.188,982.66l47.462,45.12v330.185l-47.75,45.4H636.483l-47.747-45.4V1027.78l47.46-45.12Zm-101.9,119.294h-32.9v182.4l32.9-31.279Z" transform="translate(541.509 0)"/></g><g class="a" transform="translate(-82.158 -982.66)"><path class="b" d="M414.074,982.661v119.561H322.945v301.14H173.287v-301.14H82.159V982.661Z" transform="translate(0 0.001)"/><path class="b" d="M535.444,982.661l47.46,45.118v330.185l-47.747,45.4H298.739l-47.75-45.4V1027.779l47.46-45.118Zm-101.9,119.292h-32.9v182.4l32.9-31.279Z" transform="translate(180.473 0.001)"/><path class="b" d="M751.82,1147.619l-47.75,45.4,47.75,45.108v165.237H602.458V1284.349l-32.9,31.268v87.745H419.9v-420.7H704.358l47.462,45.118Zm-149.362-45.666h-32.9v75.29l32.9-31.286Z" transform="translate(361.037 0.001)"/><path class="b" d="M873.188,982.66l47.462,45.12v330.185l-47.75,45.4H636.483l-47.747-45.4V1027.78l47.46-45.12Zm-101.9,119.294h-32.9v182.4l32.9-31.279Z" transform="translate(541.509 0)"/></g></g></svg>