<svg xmlns="http://www.w3.org/2000/svg" xmlns:xlink="http://www.w3.org/1999/xlink" width="71.87" height="71.87" viewBox="0 0 71.87 71.87"><defs><style>.a{fill:none;}.b{clip-path:url(#a);}.c{fill:#031826;stroke:rgba(0,0,0,0);}</style><clipPath id="a"><rect class="a" width="71.87" height="71.87"/></clipPath></defs><g class="b"><path class="c" d="M19840.936-13424.4a35.707,35.707,0,0,1-13.988-2.824,35.824,35.824,0,0,1-11.424-7.7,35.838,35.838,0,0,1-7.7-11.424,35.726,35.726,0,0,1-2.824-13.989,35.707,35.707,0,0,1,2.824-13.985,35.808,35.808,0,0,1,7.7-11.422,35.824,35.824,0,0,1,11.424-7.7,35.707,35.707,0,0,1,13.988-2.824,35.7,35.7,0,0,1,13.986,2.824,35.824,35.824,0,0,1,11.424,7.7,35.8,35.8,0,0,1,7.7,11.422,35.663,35.663,0,0,1,2.826,13.985,35.679,35.679,0,0,1-2.826,13.989,35.826,35.826,0,0,1-7.7,11.424,35.824,35.824,0,0,1-11.424,7.7A35.7,35.7,0,0,1,19840.936-13424.4Zm-16.187-32.381c1.184,3.312,3.521,5.295,7.363,6.241l-.217.116-.006,0a24.72,24.72,0,0,1-5.324,2.354,25.354,25.354,0,0,1-4.238.619c-.66.059-1.3.118-1.947.194a25.065,25.065,0,0,0,6.252,2.8,23.7,23.7,0,0,0,6.529.905,27.391,27.391,0,0,0,4.463-.378,22.662,22.662,0,0,0,8.344-3.135,23.246,23.246,0,0,0,6.148-5.627,25.245,25.245,0,0,0,3.814-7.138,24.162,24.162,0,0,0,1.338-7.666,3.029,3.029,0,0,1,.793-1.726c.73-.836,1.521-1.643,2.287-2.423l.037-.037c.377-.383.744-.758,1.107-1.137l-.234-.21-3.666,1.1,2.834-4.245a27.024,27.024,0,0,0-4.031,1.367,2.47,2.47,0,0,1-.951.213,2.5,2.5,0,0,1-1.562-.647,8.09,8.09,0,0,0-5.092-1.887,8.821,8.821,0,0,0-3.8.919,8.369,8.369,0,0,0-3.549,3.02,8.572,8.572,0,0,0-1.266,4.533c-.006.384-.006.772,0,1.184l0,.017c0,.222,0,.452,0,.7a24.322,24.322,0,0,1-9.434-2.645,25.985,25.985,0,0,1-7.637-6.21,9.5,9.5,0,0,0-1.113,5.931,10.643,10.643,0,0,0,2.74,5.313l-2.914-.928a9.2,9.2,0,0,0,1.553,5.09,10.982,10.982,0,0,0,4.035,3.425Z" transform="translate(-19805 13496.272)"/></g></svg>