<svg style="display: none;">

    <!-- S ICON -->
    <symbol id="s-icon" viewBox="0 0 62.487 75.86">
        <g transform="translate(-1014.308 -220)">
            <g transform="translate(1026.78 232.709)">
                <path d="M1059.4,272.44l-5.481,5.481H1021.3v-14.37h20.954v-3.809h-15.473l-5.481-5.481V232.6l5.481-5.479H1059.4V241.56h-20.922v3.775h15.441l5.481,5.449Z" transform="translate(-1021.298 -227.123)"/>
            </g>
            <g transform="translate(1014.308 220)">
                <path d="M1065.979,295.86h-51.671V230.814L1025.123,220h51.672v65.045Zm-46.955-4.718h45l8.051-8.051V224.716h-45l-8.052,8.052Z" transform="translate(-1014.308 -220)"/>
            </g>
        </g>
    </symbol>

    <!-- HAMBURGER -->
    <symbol id="hamburger-icon" viewBox="0 0 39.804 26">
        <line class="c" x2="39.804" transform="translate(0 1)"/>
        <line class="c" x2="39.804" transform="translate(0 13)"/>
        <line class="c" x2="39.804" transform="translate(0 25)"/>
    </symbol>

    <!-- CLOSE X -->
    <symbol id="close-icon" viewBox="0 0 26.971 25.715">
        <line x2="25.942" y2="24" transform="translate(0.514 0.858)"/>
        <line y1="24" x2="25.942" transform="translate(0.514 0.858)"/>
    </symbol>

    <!-- BEHANCE -->
    <symbol id="behance-icon" viewBox="0 0 71.87 71.87">
        <path d="M19480.807-13425.259a35.721,35.721,0,0,1-13.988-2.824,35.8,35.8,0,0,1-11.42-7.7,35.826,35.826,0,0,1-7.7-11.424,35.713,35.713,0,0,1-2.824-13.987,35.72,35.72,0,0,1,2.824-13.987,35.8,35.8,0,0,1,7.7-11.422,35.775,35.775,0,0,1,11.42-7.7,35.738,35.738,0,0,1,13.988-2.823,35.721,35.721,0,0,1,13.986,2.823,35.824,35.824,0,0,1,11.424,7.7,35.808,35.808,0,0,1,7.7,11.422,35.72,35.72,0,0,1,2.824,13.987,35.713,35.713,0,0,1-2.824,13.987,35.838,35.838,0,0,1-7.7,11.424,35.811,35.811,0,0,1-11.424,7.7A35.7,35.7,0,0,1,19480.807-13425.259Zm-23.811-49.353h0v28.434h12.8a19.991,19.991,0,0,0,4.018-.387,7.8,7.8,0,0,0,3.207-1.426,7.919,7.919,0,0,0,2.014-2.233,8.332,8.332,0,0,0,1.264-4.536,7.55,7.55,0,0,0-1.111-4.168,6.387,6.387,0,0,0-3.277-2.513,6.7,6.7,0,0,0,2.166-1.616,6.383,6.383,0,0,0,1.313-4.187,7.288,7.288,0,0,0-1.3-4.34c-1.439-1.955-3.916-2.974-7.361-3.027Zm35.584,6.637a9.87,9.87,0,0,0-7.283,2.826c-1.859,1.868-2.8,4.6-2.8,8.121a13.718,13.718,0,0,0,.775,4.862,7.667,7.667,0,0,0,2.33,3.293,11.132,11.132,0,0,0,7.17,2.508,9.936,9.936,0,0,0,7.66-2.973,6.683,6.683,0,0,0,1.975-3.684h-5.437a4.417,4.417,0,0,1-1.092,1.4,4.512,4.512,0,0,1-2.953.931,5.391,5.391,0,0,1-2.939-.764,4.877,4.877,0,0,1-2.125-4.3h14.826a26.8,26.8,0,0,0-.172-4.046,10.25,10.25,0,0,0-1.625-4.212,8.3,8.3,0,0,0-3.518-3.013A11.667,11.667,0,0,0,19492.58-13467.975Zm-5.77-5.456h0v2.841h11.451v-2.841Zm-17.246,22.311h-6.01v-7.577h6.1a7.148,7.148,0,0,1,2.84.484,3.059,3.059,0,0,1,1.813,3.047,3.608,3.608,0,0,1-1.871,3.551A6.657,6.657,0,0,1,19469.564-13451.12Zm27.6-8.141h-9.174a5.513,5.513,0,0,1,1.42-3.154,4.232,4.232,0,0,1,3.174-1.171,4.694,4.694,0,0,1,3.16,1.1,4.469,4.469,0,0,1,1.42,3.222Zm-27.59-4.144h-6.016v-6.27h5.289a10.679,10.679,0,0,1,3.355.445,2.551,2.551,0,0,1,1.529,2.621,2.691,2.691,0,0,1-1.152,2.5A5.73,5.73,0,0,1,19469.57-13463.4Z" transform="translate(-19444.871 13497.129)"/>
    </symbol>

    <!-- DRIBBLE -->
    <symbol id="dribble-icon" viewBox="0 0 71.871 71.87">
        <path d="M19570.873-13425.258a35.707,35.707,0,0,1-13.988-2.824,35.8,35.8,0,0,1-11.422-7.7,35.826,35.826,0,0,1-7.7-11.424,35.712,35.712,0,0,1-2.824-13.986,35.712,35.712,0,0,1,2.824-13.986,35.826,35.826,0,0,1,7.7-11.424,35.8,35.8,0,0,1,11.422-7.7,35.707,35.707,0,0,1,13.988-2.824,35.7,35.7,0,0,1,13.986,2.824,35.811,35.811,0,0,1,11.424,7.7,35.838,35.838,0,0,1,7.7,11.424,35.712,35.712,0,0,1,2.824,13.986,35.712,35.712,0,0,1-2.824,13.986,35.838,35.838,0,0,1-7.7,11.424,35.811,35.811,0,0,1-11.424,7.7A35.7,35.7,0,0,1,19570.873-13425.258Zm-.959-58.015a22.7,22.7,0,0,0-8.895,1.8,22.8,22.8,0,0,0-7.264,4.9,22.807,22.807,0,0,0-4.9,7.263,22.723,22.723,0,0,0-1.795,8.894,22.723,22.723,0,0,0,1.795,8.894,22.807,22.807,0,0,0,4.9,7.263,22.8,22.8,0,0,0,7.264,4.9,22.7,22.7,0,0,0,8.895,1.8,22.877,22.877,0,0,0,22.852-22.852A22.877,22.877,0,0,0,19569.914-13483.272Zm0,42.382a19.451,19.451,0,0,1-6.441-1.09,19.336,19.336,0,0,1-5.529-3.024,20.605,20.605,0,0,1,3.664-4.925,27.937,27.937,0,0,1,4.668-3.843,31.719,31.719,0,0,1,6.984-3.426c.023-.011.041-.018.061-.024a.525.525,0,0,0,.063-.024,80.157,80.157,0,0,1,4.168,14.8A19.207,19.207,0,0,1,19569.914-13440.891Zm10.881-3.346,0,0a82.906,82.906,0,0,0-3.787-13.9,26.037,26.037,0,0,1,4.047-.309,27.925,27.925,0,0,1,8.1,1.155,19.4,19.4,0,0,1-8.354,13.059Zm-25.406-3.12h0a19.494,19.494,0,0,1-5-13.039v-.595c.053,0,.277.008.7.008a71.965,71.965,0,0,0,19.348-2.783c.5.955,1,2.01,1.584,3.321-.09.027-.186.055-.279.081l-.127.036-.133.038-.229.066a26.444,26.444,0,0,0-6.662,3.275,31.58,31.58,0,0,0-4.875,4.1,31.557,31.557,0,0,0-4.326,5.5Zm34.031-13.236h0l-.072-.015a49.036,49.036,0,0,0-9.018-.872,36.137,36.137,0,0,0-4.488.267c-.086-.186-.166-.384-.234-.56-.051-.125-.115-.291-.189-.459-.379-.894-.812-1.844-1.289-2.824a26.45,26.45,0,0,0,10.885-7.682,19.4,19.4,0,0,1,3.205,5.6,19.391,19.391,0,0,1,1.2,6.545Zm-38.482-3.818h-.135a19.517,19.517,0,0,1,3.834-8.129,19.746,19.746,0,0,1,6.977-5.526,123.491,123.491,0,0,1,7.238,11.277A73.93,73.93,0,0,1,19550.938-13464.411Zm21.678-3.543h0a104.865,104.865,0,0,0-7.277-11.413l-.01-.012a19.744,19.744,0,0,1,4.586-.521,19.542,19.542,0,0,1,12.941,4.905c-.316.447-3.291,4.437-10.24,7.042Z" transform="translate(-19534.938 13497.129)"/>
    </symbol>

    <!-- FACEBOOK -->
    <symbol id="facebook-icon" viewBox="0 0 72.626 72.618">
        <path d="M91.6,153.947a36.309,36.309,0,1,0,36.289,36.341A36.357,36.357,0,0,0,91.6,153.947Zm8.821,36.135H94.641v20.589H86.086v-20.52H82.029v-7.308H86.06c0-.908-.034-1.756.009-2.6a28.975,28.975,0,0,1,.347-4.7,7.4,7.4,0,0,1,7.026-6.04c.548-.047,1.105-.038,1.654-.038,1.953,0,3.907,0,5.916,0v7.068c-1.375,0-2.725,0-4.07,0-1.765,0-2.326.561-2.326,2.343,0,1.272,0,2.549,0,3.933h6.546C100.913,185.28,100.673,187.636,100.424,190.082Z" transform="translate(-55.267 -153.947)"/>
    </symbol>

    <!-- INSTAGRAM -->
    <symbol id="instagram-icon" viewBox="0 0 71.87 71.87">
        <path d="M19660.938-13425.261a35.738,35.738,0,0,1-13.988-2.823,35.775,35.775,0,0,1-11.42-7.7,35.786,35.786,0,0,1-7.7-11.422,35.713,35.713,0,0,1-2.824-13.987,35.713,35.713,0,0,1,2.824-13.987,35.783,35.783,0,0,1,7.7-11.424,35.786,35.786,0,0,1,11.42-7.7,35.721,35.721,0,0,1,13.988-2.824,35.721,35.721,0,0,1,13.988,2.824,35.783,35.783,0,0,1,11.422,7.7,35.811,35.811,0,0,1,7.7,11.424,35.713,35.713,0,0,1,2.824,13.987,35.713,35.713,0,0,1-2.824,13.987,35.813,35.813,0,0,1-7.7,11.422,35.783,35.783,0,0,1-11.422,7.7A35.724,35.724,0,0,1,19660.938-13425.261Zm5.111-58.014c-5.207,0-9.91.013-14.73.168a12.338,12.338,0,0,0-9.477,4.33,12.185,12.185,0,0,0-2.883,7.895c-.1,6.43-.164,13.329.01,20.213a13.133,13.133,0,0,0,1.615,6.234,11.776,11.776,0,0,0,4.713,4.492,15.245,15.245,0,0,0,6.807,1.622c.578.027,1.166.064,1.732.1l.121.008.275.018.625.038h12.793c.436-.03.883-.058,1.314-.085l.342-.021h.014c.945-.059,1.922-.118,2.883-.2a12.431,12.431,0,0,0,7.869-3.515,12.465,12.465,0,0,0,3.516-7.885c.094-1.057.16-2.134.227-3.175l.014-.245c.021-.37.045-.748.07-1.123v-12.788c-.029-.431-.061-.894-.1-1.5l0-.031c-.062-.969-.129-1.971-.209-2.95a12.425,12.425,0,0,0-3.383-7.725,12.279,12.279,0,0,0-7.631-3.576A60.594,60.594,0,0,0,19666.049-13483.274Zm-5.687,40.824c-3.34,0-6.357-.031-9.227-.1a8.229,8.229,0,0,1-5.658-2.185,8.16,8.16,0,0,1-2.34-5.566c-.236-4.522-.25-9.137-.264-13.6l0-.142v-.643c0-.215,0-.429,0-.644a44.953,44.953,0,0,1,.406-6.816,7.854,7.854,0,0,1,2.41-4.766,8.3,8.3,0,0,1,4.965-2.021c2.105-.172,4.3-.262,6.535-.267q.709,0,1.418,0c3.326,0,6.938.038,11.365.12a15.79,15.79,0,0,1,3.342.41,7.438,7.438,0,0,1,6.055,6.64c.219,1.725.27,3.5.318,5.216l0,.05v.02c.01.361.02.725.031,1.086.033,1.085.025,2.191.018,3.262v.121c0,.439-.008.987-.008,1.507h.084c-.014.558-.027,1.121-.039,1.679-.008.346-.016.689-.023,1.028-.053,2.41-.107,4.9-.215,7.362a8.79,8.79,0,0,1-1.654,4.987,7.789,7.789,0,0,1-6.383,3.164C19667.207-13442.48,19663.668-13442.45,19660.361-13442.45Zm.947-29.885a11.526,11.526,0,0,0-8.211,3.38,11.532,11.532,0,0,0-3.377,8.212,11.546,11.546,0,0,0,3.383,8.191,11.468,11.468,0,0,0,8.17,3.4h.027a11.531,11.531,0,0,0,8.209-3.407,11.511,11.511,0,0,0,3.391-8.2,11.508,11.508,0,0,0-3.389-8.179,11.523,11.523,0,0,0-8.184-3.394Zm12.027-3.159a2.731,2.731,0,0,0-1.93.774,2.718,2.718,0,0,0-.8,1.915,2.71,2.71,0,0,0,.779,1.932,2.7,2.7,0,0,0,1.918.807h.018a2.731,2.731,0,0,0,1.93-.784,2.7,2.7,0,0,0,.807-1.91,2.7,2.7,0,0,0-.777-1.93,2.7,2.7,0,0,0-1.926-.8Zm-12.211,22.233a7.186,7.186,0,0,1-4.969-2.064,7.54,7.54,0,0,1-2.342-4.979,7.43,7.43,0,0,1,1.889-5.419,7.47,7.47,0,0,1,5.166-2.52c.156-.009.313-.014.459-.014a7.3,7.3,0,0,1,5.107,2.056,7.9,7.9,0,0,1,2.342,5.185,6.963,6.963,0,0,1-1.762,5.1,7.975,7.975,0,0,1-5.471,2.646C19661.393-13453.266,19661.254-13453.261,19661.125-13453.261Z" transform="translate(-19625.004 13497.129)"/>
    </symbol>

    <!-- TWITTER -->
    <symbol id="twitter-icon" viewBox="0 0 71.87 71.87">
        <path d="M19840.936-13424.4a35.707,35.707,0,0,1-13.988-2.824,35.824,35.824,0,0,1-11.424-7.7,35.838,35.838,0,0,1-7.7-11.424,35.726,35.726,0,0,1-2.824-13.989,35.707,35.707,0,0,1,2.824-13.985,35.808,35.808,0,0,1,7.7-11.422,35.824,35.824,0,0,1,11.424-7.7,35.707,35.707,0,0,1,13.988-2.824,35.7,35.7,0,0,1,13.986,2.824,35.824,35.824,0,0,1,11.424,7.7,35.8,35.8,0,0,1,7.7,11.422,35.663,35.663,0,0,1,2.826,13.985,35.679,35.679,0,0,1-2.826,13.989,35.826,35.826,0,0,1-7.7,11.424,35.824,35.824,0,0,1-11.424,7.7A35.7,35.7,0,0,1,19840.936-13424.4Zm-16.187-32.381c1.184,3.312,3.521,5.295,7.363,6.241l-.217.116-.006,0a24.72,24.72,0,0,1-5.324,2.354,25.354,25.354,0,0,1-4.238.619c-.66.059-1.3.118-1.947.194a25.065,25.065,0,0,0,6.252,2.8,23.7,23.7,0,0,0,6.529.905,27.391,27.391,0,0,0,4.463-.378,22.662,22.662,0,0,0,8.344-3.135,23.246,23.246,0,0,0,6.148-5.627,25.245,25.245,0,0,0,3.814-7.138,24.162,24.162,0,0,0,1.338-7.666,3.029,3.029,0,0,1,.793-1.726c.73-.836,1.521-1.643,2.287-2.423l.037-.037c.377-.383.744-.758,1.107-1.137l-.234-.21-3.666,1.1,2.834-4.245a27.024,27.024,0,0,0-4.031,1.367,2.47,2.47,0,0,1-.951.213,2.5,2.5,0,0,1-1.562-.647,8.09,8.09,0,0,0-5.092-1.887,8.821,8.821,0,0,0-3.8.919,8.369,8.369,0,0,0-3.549,3.02,8.572,8.572,0,0,0-1.266,4.533c-.006.384-.006.772,0,1.184l0,.017c0,.222,0,.452,0,.7a24.322,24.322,0,0,1-9.434-2.645,25.985,25.985,0,0,1-7.637-6.21,9.5,9.5,0,0,0-1.113,5.931,10.643,10.643,0,0,0,2.74,5.313l-2.914-.928a9.2,9.2,0,0,0,1.553,5.09,10.982,10.982,0,0,0,4.035,3.425Z" transform="translate(-19805 13496.272)"/>
    </symbol>

    <!-- ALL PROJECTS -->
    <symbol id="all-projects-icon" viewBox="0 0 91.824 73.33">
        <path d="M50.8,5.343H3.887v73.33H95.711V5.343Zm-2,71.33H5.887V7.343H48.8Zm44.913,0H50.8V7.343H93.711Z" transform="translate(-3.887 -5.343)"/>
        <path d="M44.94,72.67H9.567V37.3H44.94Zm-33.373-2H42.94V39.3H11.567Z" transform="translate(-3.887 -5.343)"/>
        <rect width="31.954" height="2" transform="translate(7.035 8.117)"/>
        <rect width="31.954" height="2" transform="translate(7.035 13.502)"/>
        <rect width="31.954" height="2" transform="translate(7.035 18.887)"/>
        <rect width="31.954" height="2" transform="translate(7.035 24.271)"/>
        <rect width="31.953" height="2" transform="translate(52.894 48.945)"/>
        <rect width="31.953" height="2" transform="translate(52.894 54.33)"/>
        <rect width="31.953" height="2" transform="translate(52.894 59.715)"/>
        <rect width="31.953" height="2" transform="translate(52.894 65.1)"/>
        <path d="M72.75,48.043A18.117,18.117,0,1,1,90.868,29.926,18.137,18.137,0,0,1,72.75,48.043Zm0-34.234A16.117,16.117,0,1,0,88.868,29.926,16.135,16.135,0,0,0,72.75,13.809Z" transform="translate(-3.887 -5.343)"/>
    </symbol>

    <!-- ARROW LEFT -->
    <symbol id="arrow-left-icon" viewBox="0 0 14.1 25.3">
        <polygon points="12.7,25.3 0,12.7 12.7,0 14.1,1.4 2.8,12.7 14.1,23.9 "/>
    </symbol>

    <!-- EYE -->
    <symbol id="eye-icon" viewBox="0 0 250.624 143.596">
        <g transform="translate(564.589 -426.274)">
            <path d="M-314.74,496.779a146.178,146.178,0,0,0-51.963-51.09,145.137,145.137,0,0,0-72.574-19.415,145.158,145.158,0,0,0-72.579,19.415,146.119,146.119,0,0,0-51.959,51.09l-.774,1.288.774,1.287a146.094,146.094,0,0,0,51.955,51.1,145.141,145.141,0,0,0,72.583,19.416A145.136,145.136,0,0,0-366.7,550.454a146.081,146.081,0,0,0,51.959-51.1l.775-1.287ZM-369.2,546.125a140.12,140.12,0,0,1-70.075,18.745,140.131,140.131,0,0,1-70.08-18.744,141.093,141.093,0,0,1-49.389-48.059,141.1,141.1,0,0,1,49.393-48.048,139.517,139.517,0,0,1,38.105-15.06,63.426,63.426,0,0,0-31.434,54.721,63.476,63.476,0,0,0,63.4,63.405,63.477,63.477,0,0,0,63.4-63.405A63.427,63.427,0,0,0-407.3,434.96a139.465,139.465,0,0,1,38.1,15.059,141.167,141.167,0,0,1,49.4,48.048A141.069,141.069,0,0,1-369.2,546.125Zm-70.075-114.851a58.472,58.472,0,0,1,58.4,58.406,58.471,58.471,0,0,1-58.4,58.405,58.471,58.471,0,0,1-58.4-58.405A58.472,58.472,0,0,1-439.277,431.274Z"/>
            <path d="M-460.975,536.921l47.9-57.651h-16.241l14.6-36.661H-440.7l-20.951,52.611h17.281Zm6.694-46.7,16.969-42.611h15.218l-14.6,36.661h12.959l-20.925,25.188L-437,490.22Z"/>
        </g>
    </symbol>
</svg>